<svg id="visual" viewBox="0 0 900 600" width="900" height="600" xmlns="http://www.w3.org/2000/svg" xmlns:xlink="http://www.w3.org/1999/xlink" version="1.1"><rect x="0" y="0" width="900" height="600" fill="#e2e6e9"></rect><defs><linearGradient id="grad1_0" x1="33.3%" y1="100%" x2="100%" y2="0%"><stop offset="20%" stop-color="#77b8de" stop-opacity="1"></stop><stop offset="80%" stop-color="#77b8de" stop-opacity="1"></stop></linearGradient></defs><defs><linearGradient id="grad1_1" x1="33.3%" y1="100%" x2="100%" y2="0%"><stop offset="20%" stop-color="#77b8de" stop-opacity="1"></stop><stop offset="80%" stop-color="#b0cfe4" stop-opacity="1"></stop></linearGradient></defs><defs><linearGradient id="grad1_2" x1="33.3%" y1="100%" x2="100%" y2="0%"><stop offset="20%" stop-color="#e2e6e9" stop-opacity="1"></stop><stop offset="80%" stop-color="#b0cfe4" stop-opacity="1"></stop></linearGradient></defs><defs><linearGradient id="grad2_0" x1="0%" y1="100%" x2="66.7%" y2="0%"><stop offset="20%" stop-color="#77b8de" stop-opacity="1"></stop><stop offset="80%" stop-color="#77b8de" stop-opacity="1"></stop></linearGradient></defs><defs><linearGradient id="grad2_1" x1="0%" y1="100%" x2="66.7%" y2="0%"><stop offset="20%" stop-color="#b0cfe4" stop-opacity="1"></stop><stop offset="80%" stop-color="#77b8de" stop-opacity="1"></stop></linearGradient></defs><defs><linearGradient id="grad2_2" x1="0%" y1="100%" x2="66.7%" y2="0%"><stop offset="20%" stop-color="#b0cfe4" stop-opacity="1"></stop><stop offset="80%" stop-color="#e2e6e9" stop-opacity="1"></stop></linearGradient></defs><g transform="translate(900, 600)"><path d="M-324.5 0C-283.6 -19.7 -242.7 -39.4 -223.1 -59.8C-203.6 -80.2 -205.3 -101.4 -196.6 -113.5C-187.8 -125.6 -168.5 -128.7 -166.9 -166.9C-165.2 -205 -181.2 -278.3 -162.2 -281C-143.3 -283.8 -89.5 -216 -56.7 -211.5C-23.8 -207 -11.9 -265.8 0 -324.5L0 0Z" fill="#cadae6"></path><path d="M-216.3 0C-189.1 -13.1 -161.8 -26.2 -148.8 -39.9C-135.7 -53.5 -136.9 -67.6 -131.1 -75.7C-125.2 -83.8 -112.4 -85.8 -111.3 -111.3C-110.1 -136.7 -120.8 -185.5 -108.2 -187.3C-95.6 -189.2 -59.7 -144 -37.8 -141C-15.9 -138 -7.9 -177.2 0 -216.3L0 0Z" fill="#95c3e1"></path><path d="M-108.2 0C-94.5 -6.6 -80.9 -13.1 -74.4 -19.9C-67.9 -26.7 -68.4 -33.8 -65.5 -37.8C-62.6 -41.9 -56.2 -42.9 -55.6 -55.6C-55.1 -68.3 -60.4 -92.8 -54.1 -93.7C-47.8 -94.6 -29.8 -72 -18.9 -70.5C-7.9 -69 -4 -88.6 0 -108.2L0 0Z" fill="#77b8de"></path></g><g transform="translate(0, 0)"><path d="M324.5 0C306.5 23.3 288.6 46.6 283 75.8C277.4 105.1 284.3 140.2 259.8 150C235.3 159.8 179.6 144.1 158.4 158.4C137.2 172.7 150.5 216.9 144 249.4C137.5 282 111.3 302.9 84 313.4C56.7 324 28.3 324.3 0 324.5L0 0Z" fill="#cadae6"></path><path d="M216.3 0C204.4 15.5 192.4 31.1 188.7 50.6C185 70 189.5 93.5 173.2 100C156.9 106.5 119.7 96.1 105.6 105.6C91.4 115.1 100.3 144.6 96 166.3C91.7 188 74.2 201.9 56 209C37.8 216 18.9 216.2 0 216.3L0 0Z" fill="#95c3e1"></path><path d="M108.2 0C102.2 7.8 96.2 15.5 94.3 25.3C92.5 35 94.8 46.7 86.6 50C78.4 53.3 59.9 48 52.8 52.8C45.7 57.6 50.2 72.3 48 83.1C45.8 94 37.1 101 28 104.5C18.9 108 9.4 108.1 0 108.2L0 0Z" fill="#77b8de"></path></g></svg>