<svg id="visual" viewBox="0 0 900 600" width="900" height="600" xmlns="http://www.w3.org/2000/svg" xmlns:xlink="http://www.w3.org/1999/xlink" version="1.1"><rect x="0" y="0" width="900" height="600" fill="#070707"></rect><defs><linearGradient id="grad1_0" x1="33.3%" y1="100%" x2="100%" y2="0%"><stop offset="20%" stop-color="#3b6f8e" stop-opacity="1"></stop><stop offset="80%" stop-color="#3b6f8e" stop-opacity="1"></stop></linearGradient></defs><defs><linearGradient id="grad1_1" x1="33.3%" y1="100%" x2="100%" y2="0%"><stop offset="20%" stop-color="#3b6f8e" stop-opacity="1"></stop><stop offset="80%" stop-color="#253a48" stop-opacity="1"></stop></linearGradient></defs><defs><linearGradient id="grad1_2" x1="33.3%" y1="100%" x2="100%" y2="0%"><stop offset="20%" stop-color="#070707" stop-opacity="1"></stop><stop offset="80%" stop-color="#253a48" stop-opacity="1"></stop></linearGradient></defs><defs><linearGradient id="grad2_0" x1="0%" y1="100%" x2="66.7%" y2="0%"><stop offset="20%" stop-color="#3b6f8e" stop-opacity="1"></stop><stop offset="80%" stop-color="#3b6f8e" stop-opacity="1"></stop></linearGradient></defs><defs><linearGradient id="grad2_1" x1="0%" y1="100%" x2="66.7%" y2="0%"><stop offset="20%" stop-color="#253a48" stop-opacity="1"></stop><stop offset="80%" stop-color="#3b6f8e" stop-opacity="1"></stop></linearGradient></defs><defs><linearGradient id="grad2_2" x1="0%" y1="100%" x2="66.7%" y2="0%"><stop offset="20%" stop-color="#253a48" stop-opacity="1"></stop><stop offset="80%" stop-color="#070707" stop-opacity="1"></stop></linearGradient></defs><g transform="translate(900, 600)"><path d="M-324.5 0C-320.7 -29.6 -316.8 -59.2 -300.4 -80.5C-284 -101.7 -255 -114.6 -245.1 -141.5C-235.2 -168.4 -244.3 -209.2 -229.5 -229.5C-214.6 -249.7 -175.7 -249.3 -146.5 -253.7C-117.3 -258.2 -97.9 -267.5 -75.1 -280.1C-52.3 -292.7 -26.1 -308.6 0 -324.5L0 0Z" fill="#192228"></path><path d="M-216.3 0C-213.8 -19.7 -211.2 -39.5 -200.3 -53.7C-189.3 -67.8 -170 -76.4 -163.4 -94.3C-156.8 -112.2 -162.9 -139.5 -153 -153C-143.1 -166.5 -117.1 -166.2 -97.7 -169.2C-78.2 -172.1 -65.2 -178.3 -50 -186.7C-34.8 -195.1 -17.4 -205.7 0 -216.3L0 0Z" fill="#30546a"></path><path d="M-108.2 0C-106.9 -9.9 -105.6 -19.7 -100.1 -26.8C-94.7 -33.9 -85 -38.2 -81.7 -47.2C-78.4 -56.1 -81.4 -69.7 -76.5 -76.5C-71.5 -83.2 -58.6 -83.1 -48.8 -84.6C-39.1 -86.1 -32.6 -89.2 -25 -93.4C-17.4 -97.6 -8.7 -102.9 0 -108.2L0 0Z" fill="#3b6f8e"></path></g><g transform="translate(0, 0)"><path d="M324.5 0C315.2 30.1 305.9 60.2 280.1 75.1C254.3 89.9 212 89.6 208.7 120.5C205.4 151.4 241.2 213.4 229.5 229.5C217.8 245.5 158.6 215.5 128 221.7C97.4 227.9 95.3 270.5 78.7 293.6C62.1 316.8 31 320.7 0 324.5L0 0Z" fill="#192228"></path><path d="M216.3 0C210.1 20.1 203.9 40.1 186.7 50C169.5 60 141.3 59.8 139.1 80.3C136.9 100.9 160.8 142.3 153 153C145.2 163.7 105.7 143.6 85.3 147.8C64.9 152 63.5 180.3 52.5 195.8C41.4 211.2 20.7 213.8 0 216.3L0 0Z" fill="#30546a"></path><path d="M108.2 0C105.1 10 102 20.1 93.4 25C84.8 30 70.7 29.9 69.6 40.2C68.5 50.5 80.4 71.1 76.5 76.5C72.6 81.8 52.9 71.8 42.7 73.9C32.5 76 31.8 90.2 26.2 97.9C20.7 105.6 10.3 106.9 0 108.2L0 0Z" fill="#3b6f8e"></path></g></svg>