<svg id="visual" viewBox="0 0 900 600" width="900" height="600" xmlns="http://www.w3.org/2000/svg" xmlns:xlink="http://www.w3.org/1999/xlink" version="1.1"><rect x="0" y="0" width="900" height="600" fill="#e2e6e9"></rect><path d="M0 343L21.5 331.2C43 319.3 86 295.7 128.8 294.2C171.7 292.7 214.3 313.3 257.2 325.3C300 337.3 343 340.7 385.8 331.5C428.7 322.3 471.3 300.7 514.2 290.2C557 279.7 600 280.3 642.8 287C685.7 293.7 728.3 306.3 771.2 320.3C814 334.3 857 349.7 878.5 357.3L900 365L900 601L878.5 601C857 601 814 601 771.2 601C728.3 601 685.7 601 642.8 601C600 601 557 601 514.2 601C471.3 601 428.7 601 385.8 601C343 601 300 601 257.2 601C214.3 601 171.7 601 128.8 601C86 601 43 601 21.5 601L0 601Z" fill="#dde5ec"></path><path d="M0 343L21.5 342.8C43 342.7 86 342.3 128.8 342.7C171.7 343 214.3 344 257.2 341.2C300 338.3 343 331.7 385.8 331.5C428.7 331.3 471.3 337.7 514.2 347.5C557 357.3 600 370.7 642.8 380.3C685.7 390 728.3 396 771.2 393.7C814 391.3 857 380.7 878.5 375.3L900 370L900 601L878.5 601C857 601 814 601 771.2 601C728.3 601 685.7 601 642.8 601C600 601 557 601 514.2 601C471.3 601 428.7 601 385.8 601C343 601 300 601 257.2 601C214.3 601 171.7 601 128.8 601C86 601 43 601 21.5 601L0 601Z" fill="#c9dcec"></path><path d="M0 374L21.5 376C43 378 86 382 128.8 389.8C171.7 397.7 214.3 409.3 257.2 416.2C300 423 343 425 385.8 427.3C428.7 429.7 471.3 432.3 514.2 427.5C557 422.7 600 410.3 642.8 405.8C685.7 401.3 728.3 404.7 771.2 405.7C814 406.7 857 405.3 878.5 404.7L900 404L900 601L878.5 601C857 601 814 601 771.2 601C728.3 601 685.7 601 642.8 601C600 601 557 601 514.2 601C471.3 601 428.7 601 385.8 601C343 601 300 601 257.2 601C214.3 601 171.7 601 128.8 601C86 601 43 601 21.5 601L0 601Z" fill="#b4d3ed"></path><path d="M0 415L21.5 426.3C43 437.7 86 460.3 128.8 471.7C171.7 483 214.3 483 257.2 480.8C300 478.7 343 474.3 385.8 474C428.7 473.7 471.3 477.3 514.2 478C557 478.7 600 476.3 642.8 470.8C685.7 465.3 728.3 456.7 771.2 449.3C814 442 857 436 878.5 433L900 430L900 601L878.5 601C857 601 814 601 771.2 601C728.3 601 685.7 601 642.8 601C600 601 557 601 514.2 601C471.3 601 428.7 601 385.8 601C343 601 300 601 257.2 601C214.3 601 171.7 601 128.8 601C86 601 43 601 21.5 601L0 601Z" fill="#9fc9ed"></path><path d="M0 504L21.5 500.3C43 496.7 86 489.3 128.8 483.5C171.7 477.7 214.3 473.3 257.2 480C300 486.7 343 504.3 385.8 505.2C428.7 506 471.3 490 514.2 480.8C557 471.7 600 469.3 642.8 471.3C685.7 473.3 728.3 479.7 771.2 483.2C814 486.7 857 487.3 878.5 487.7L900 488L900 601L878.5 601C857 601 814 601 771.2 601C728.3 601 685.7 601 642.8 601C600 601 557 601 514.2 601C471.3 601 428.7 601 385.8 601C343 601 300 601 257.2 601C214.3 601 171.7 601 128.8 601C86 601 43 601 21.5 601L0 601Z" fill="#89c0ee"></path><path d="M0 551L21.5 550.7C43 550.3 86 549.7 128.8 548.7C171.7 547.7 214.3 546.3 257.2 543.5C300 540.7 343 536.3 385.8 532.5C428.7 528.7 471.3 525.3 514.2 524.5C557 523.7 600 525.3 642.8 532C685.7 538.7 728.3 550.3 771.2 555.5C814 560.7 857 559.3 878.5 558.7L900 558L900 601L878.5 601C857 601 814 601 771.2 601C728.3 601 685.7 601 642.8 601C600 601 557 601 514.2 601C471.3 601 428.7 601 385.8 601C343 601 300 601 257.2 601C214.3 601 171.7 601 128.8 601C86 601 43 601 21.5 601L0 601Z" fill="#70b6ee"></path></svg>