<svg id="visual" viewBox="0 0 900 600" width="900" height="600" xmlns="http://www.w3.org/2000/svg" xmlns:xlink="http://www.w3.org/1999/xlink" version="1.1"><rect x="0" y="0" width="900" height="600" fill="#212020"></rect><path d="M0 306L21.5 305.3C43 304.7 86 303.3 128.8 310.8C171.7 318.3 214.3 334.7 257.2 345.2C300 355.7 343 360.3 385.8 352.5C428.7 344.7 471.3 324.3 514.2 318.3C557 312.3 600 320.7 642.8 335.7C685.7 350.7 728.3 372.3 771.2 371.7C814 371 857 348 878.5 336.5L900 325L900 601L878.5 601C857 601 814 601 771.2 601C728.3 601 685.7 601 642.8 601C600 601 557 601 514.2 601C471.3 601 428.7 601 385.8 601C343 601 300 601 257.2 601C214.3 601 171.7 601 128.8 601C86 601 43 601 21.5 601L0 601Z" fill="#7397ac"></path><path d="M0 344L21.5 358.2C43 372.3 86 400.7 128.8 407.8C171.7 415 214.3 401 257.2 402.2C300 403.3 343 419.7 385.8 421C428.7 422.3 471.3 408.7 514.2 398.5C557 388.3 600 381.7 642.8 387.3C685.7 393 728.3 411 771.2 421C814 431 857 433 878.5 434L900 435L900 601L878.5 601C857 601 814 601 771.2 601C728.3 601 685.7 601 642.8 601C600 601 557 601 514.2 601C471.3 601 428.7 601 385.8 601C343 601 300 601 257.2 601C214.3 601 171.7 601 128.8 601C86 601 43 601 21.5 601L0 601Z" fill="#688fa6"></path><path d="M0 435L21.5 434.7C43 434.3 86 433.7 128.8 427C171.7 420.3 214.3 407.7 257.2 405.2C300 402.7 343 410.3 385.8 411.5C428.7 412.7 471.3 407.3 514.2 406.7C557 406 600 410 642.8 409.7C685.7 409.3 728.3 404.7 771.2 407.5C814 410.3 857 420.7 878.5 425.8L900 431L900 601L878.5 601C857 601 814 601 771.2 601C728.3 601 685.7 601 642.8 601C600 601 557 601 514.2 601C471.3 601 428.7 601 385.8 601C343 601 300 601 257.2 601C214.3 601 171.7 601 128.8 601C86 601 43 601 21.5 601L0 601Z" fill="#5d87a0"></path><path d="M0 488L21.5 488.7C43 489.3 86 490.7 128.8 485.2C171.7 479.7 214.3 467.3 257.2 460.5C300 453.7 343 452.3 385.8 459.3C428.7 466.3 471.3 481.7 514.2 490.2C557 498.7 600 500.3 642.8 499.7C685.7 499 728.3 496 771.2 484.7C814 473.3 857 453.7 878.5 443.8L900 434L900 601L878.5 601C857 601 814 601 771.2 601C728.3 601 685.7 601 642.8 601C600 601 557 601 514.2 601C471.3 601 428.7 601 385.8 601C343 601 300 601 257.2 601C214.3 601 171.7 601 128.8 601C86 601 43 601 21.5 601L0 601Z" fill="#527f9a"></path><path d="M0 506L21.5 510.2C43 514.3 86 522.7 128.8 522.3C171.7 522 214.3 513 257.2 510.2C300 507.3 343 510.7 385.8 507C428.7 503.3 471.3 492.7 514.2 496.8C557 501 600 520 642.8 528.5C685.7 537 728.3 535 771.2 526.5C814 518 857 503 878.5 495.5L900 488L900 601L878.5 601C857 601 814 601 771.2 601C728.3 601 685.7 601 642.8 601C600 601 557 601 514.2 601C471.3 601 428.7 601 385.8 601C343 601 300 601 257.2 601C214.3 601 171.7 601 128.8 601C86 601 43 601 21.5 601L0 601Z" fill="#477794"></path><path d="M0 537L21.5 537C43 537 86 537 128.8 535C171.7 533 214.3 529 257.2 526.7C300 524.3 343 523.7 385.8 530.5C428.7 537.3 471.3 551.7 514.2 556.3C557 561 600 556 642.8 549.3C685.7 542.7 728.3 534.3 771.2 530.7C814 527 857 528 878.5 528.5L900 529L900 601L878.5 601C857 601 814 601 771.2 601C728.3 601 685.7 601 642.8 601C600 601 557 601 514.2 601C471.3 601 428.7 601 385.8 601C343 601 300 601 257.2 601C214.3 601 171.7 601 128.8 601C86 601 43 601 21.5 601L0 601Z" fill="#3b6f8e"></path></svg>